<?xml version="1.0" standalone="yes"?>

<svg version="1.1" viewBox="0.0 0.0 713.1469816272966 457.73753280839895" fill="none" stroke="none" stroke-linecap="square" stroke-miterlimit="10" xmlns="http://www.w3.org/2000/svg" xmlns:xlink="http://www.w3.org/1999/xlink"><clipPath id="p.0"><path d="m0 0l713.147 0l0 457.73752l-713.147 0l0 -457.73752z" clip-rule="nonzero"></path></clipPath><g clip-path="url(#p.0)"><path fill="#000000" fill-opacity="0.0" d="m0 0l713.147 0l0 457.73752l-713.147 0z" fill-rule="evenodd"></path><path fill="#000000" fill-opacity="0.0" d="m399.0866 230.13911l251.37006 0.72439575" fill-rule="evenodd"></path><path stroke="#000000" stroke-width="1.0" stroke-linejoin="round" stroke-linecap="butt" d="m399.0866 230.13911l245.37012 0.7071228" fill-rule="evenodd"></path><path fill="#000000" stroke="#000000" stroke-width="1.0" stroke-linecap="butt" d="m644.45197 232.49796l4.5428467 -1.6386566l-4.533325 -1.6647949z" fill-rule="evenodd"></path><path fill="#000000" fill-opacity="0.0" d="m525.2756 131.79265l-1.0078735 197.41731" fill-rule="evenodd"></path><path stroke="#000000" stroke-width="1.0" stroke-linejoin="round" stroke-linecap="butt" d="m525.24493 137.79257l-0.9772339 191.41739" fill-rule="evenodd"></path><path fill="#000000" stroke="#000000" stroke-width="1.0" stroke-linecap="butt" d="m526.89667 137.80101l-1.62854 -4.5464783l-1.6748657 4.529602z" fill-rule="evenodd"></path><path fill="#000000" fill-opacity="0.0" d="m399.0866 230.50131l124.72443 0" fill-rule="evenodd"></path><path stroke="#000000" stroke-width="3.0" stroke-linejoin="round" stroke-linecap="butt" d="m399.0866 230.50131l124.72443 0" fill-rule="evenodd"></path><path fill="#000000" fill-opacity="0.0" d="m524.2677 230.13911l87.49609 -81.921265" fill-rule="evenodd"></path><path stroke="#000000" stroke-width="3.0" stroke-linejoin="round" stroke-linecap="butt" d="m524.2677 230.13911l87.49609 -81.921265" fill-rule="evenodd"></path><path fill="#000000" fill-opacity="0.0" d="m50.519684 230.13911l251.37009 0.72439575" fill-rule="evenodd"></path><path stroke="#000000" stroke-width="1.0" stroke-linejoin="round" stroke-linecap="butt" d="m50.519684 230.13911l245.37009 0.7071228" fill-rule="evenodd"></path><path fill="#000000" stroke="#000000" stroke-width="1.0" stroke-linecap="butt" d="m295.88504 232.49796l4.542816 -1.6386566l-4.5332947 -1.6647949z" fill-rule="evenodd"></path><path fill="#000000" fill-opacity="0.0" d="m176.70866 131.79265l-1.0078735 197.41731" fill-rule="evenodd"></path><path stroke="#000000" stroke-width="1.0" stroke-linejoin="round" stroke-linecap="butt" d="m176.67802 137.79257l-0.9772339 191.41739" fill-rule="evenodd"></path><path fill="#000000" stroke="#000000" stroke-width="1.0" stroke-linecap="butt" d="m178.32974 137.80101l-1.62854 -4.5464783l-1.674881 4.529602z" fill-rule="evenodd"></path><path fill="#000000" fill-opacity="0.0" d="m177.71654 228.37534l111.49605 2.1417236" fill-rule="evenodd"></path><path stroke="#000000" stroke-width="3.0" stroke-linejoin="round" stroke-linecap="butt" d="m177.71654 228.37534l111.49605 2.1417236" fill-rule="evenodd"></path><path fill="#000000" fill-opacity="0.0" d="m87.74803 312.7848l88.566925 -84.409454" fill-rule="evenodd"></path><path stroke="#000000" stroke-width="3.0" stroke-linejoin="round" stroke-linecap="butt" d="m87.74803 312.7848l88.566925 -84.409454" fill-rule="evenodd"></path><path fill="#000000" fill-opacity="0.0" d="m329.73227 230.50131l0 0c0 -7.4362793 5.711029 -13.464569 12.75592 -13.464569l0 0c3.3830872 0 6.627594 1.4185791 9.019775 3.9436798c2.392212 2.5251007 3.7361145 5.9498596 3.7361145 9.520889l0 0c0 7.4362793 -5.7109985 13.464569 -12.75589 13.464569l0 0c-7.0448914 0 -12.75592 -6.02829 -12.75592 -13.464569z" fill-rule="evenodd"></path><path stroke="#000000" stroke-width="4.0" stroke-linejoin="round" stroke-linecap="butt" d="m329.73227 230.50131l0 0c0 -7.4362793 5.711029 -13.464569 12.75592 -13.464569l0 0c3.3830872 0 6.627594 1.4185791 9.019775 3.9436798c2.392212 2.5251007 3.7361145 5.9498596 3.7361145 9.520889l0 0c0 7.4362793 -5.7109985 13.464569 -12.75589 13.464569l0 0c-7.0448914 0 -12.75592 -6.02829 -12.75592 -13.464569z" fill-rule="evenodd"></path><path fill="#000000" fill-opacity="0.0" d="m345.73227 230.50131l0 0c0 -7.4362793 5.711029 -13.464569 12.75592 -13.464569l0 0c3.3830872 0 6.627594 1.4185791 9.019775 3.9436798c2.392212 2.5251007 3.7361145 5.9498596 3.7361145 9.520889l0 0c0 7.4362793 -5.7109985 13.464569 -12.75589 13.464569l0 0c-7.0448914 0 -12.75592 -6.02829 -12.75592 -13.464569z" fill-rule="evenodd"></path><path stroke="#000000" stroke-width="4.0" stroke-linejoin="round" stroke-linecap="butt" d="m345.73227 230.50131l0 0c0 -7.4362793 5.711029 -13.464569 12.75592 -13.464569l0 0c3.3830872 0 6.627594 1.4185791 9.019775 3.9436798c2.392212 2.5251007 3.7361145 5.9498596 3.7361145 9.520889l0 0c0 7.4362793 -5.7109985 13.464569 -12.75589 13.464569l0 0c-7.0448914 0 -12.75592 -6.02829 -12.75592 -13.464569z" fill-rule="evenodd"></path><path fill="#000000" fill-opacity="0.0" d="m24.64567 105.068245l664.72437 0l0 249.44882l-664.72437 0z" fill-rule="evenodd"></path><path stroke="#000000" stroke-width="3.0" stroke-linejoin="round" stroke-linecap="butt" stroke-dasharray="12.0,9.0" d="m24.64567 105.068245l664.72437 0l0 249.44882l-664.72437 0z" fill-rule="evenodd"></path><path fill="#000000" fill-opacity="0.0" d="m357.73227 439.55643l-0.72439575 -85.03937" fill-rule="evenodd"></path><path stroke="#000000" stroke-width="4.0" stroke-linejoin="round" stroke-linecap="butt" stroke-dasharray="16.0,12.0" d="m357.73227 439.55643l-0.72439575 -85.03937" fill-rule="evenodd"></path><path fill="#000000" fill-opacity="0.0" d="m357.00787 387.11548l0 0" fill-rule="evenodd"></path><path stroke="#000000" stroke-width="1.0" stroke-linejoin="round" stroke-linecap="butt" d="m357.00787 387.11548l0 0" fill-rule="evenodd"></path><path fill="#000000" fill-opacity="0.0" d="m176.56693 105.068245l-0.724411 -85.039375" fill-rule="evenodd"></path><path stroke="#000000" stroke-width="4.0" stroke-linejoin="round" stroke-linecap="butt" stroke-dasharray="16.0,12.0" d="m176.56693 105.068245l-0.724411 -85.039375" fill-rule="evenodd"></path><path fill="#000000" fill-opacity="0.0" d="m525.13385 105.068245l-0.72442627 -85.039375" fill-rule="evenodd"></path><path stroke="#000000" stroke-width="4.0" stroke-linejoin="round" stroke-linecap="butt" stroke-dasharray="16.0,12.0" d="m525.13385 105.068245l-0.72442627 -85.039375" fill-rule="evenodd"></path></g></svg>

